<svg id="svg" version="1.1" xmlns="http://www.w3.org/2000/svg" xmlns:xlink="http://www.w3.org/1999/xlink" width="400" height="111.96448390677025" viewBox="0, 0, 400,111.96448390677025"><g id="svgg"><path id="path0" d="M303.333 55.917 L 303.333 111.833 351.667 111.833 L 400.000 111.833 400.000 55.917 L 400.000 0.000 351.667 0.000 L 303.333 0.000 303.333 55.917 M397.781 32.862 C 398.477 33.516,398.263 34.839,397.386 35.306 C 395.914 36.090,394.400 34.085,395.576 32.909 C 396.122 32.363,397.224 32.340,397.781 32.862 M395.836 33.284 C 395.421 33.812,395.494 34.425,396.026 34.875 C 397.044 35.737,398.356 34.321,397.574 33.204 C 397.190 32.656,396.298 32.697,395.836 33.284 M397.133 33.200 C 397.450 33.516,397.369 33.649,396.882 33.615 C 396.393 33.581,396.218 33.903,396.493 34.332 C 396.620 34.530,396.695 34.538,396.860 34.374 C 397.137 34.096,397.333 34.112,397.333 34.413 C 397.333 34.746,396.561 34.925,396.248 34.665 C 395.899 34.375,395.928 33.392,396.292 33.180 C 396.680 32.954,396.892 32.959,397.133 33.200 M329.075 38.755 C 340.645 41.769,337.682 63.297,324.806 69.764 C 316.386 73.993,308.753 68.573,309.411 58.833 C 310.245 46.480,320.100 36.417,329.075 38.755 M25.151 38.828 C 14.267 40.211,7.985 51.613,12.342 62.078 C 16.529 72.135,30.751 75.035,37.919 67.294 C 39.112 66.005,39.171 65.855,38.625 65.510 C 38.419 65.380,37.907 65.058,37.487 64.796 L 36.724 64.319 35.320 65.716 C 30.922 70.093,23.112 69.930,18.450 65.364 C 12.946 59.972,12.978 50.149,18.517 44.908 C 23.121 40.551,30.486 40.304,34.758 44.363 L 35.983 45.526 37.254 44.585 L 38.526 43.645 38.121 43.114 C 35.870 40.161,29.979 38.214,25.151 38.828 M56.583 38.764 C 46.505 40.196,40.509 48.405,42.250 58.390 C 45.208 75.352,69.982 76.265,74.203 59.567 C 77.078 48.192,67.750 37.179,56.583 38.764 M254.917 38.846 C 244.270 40.302,238.154 50.988,241.975 61.457 C 245.967 72.397,261.491 75.350,268.499 66.501 L 269.010 65.856 267.833 65.095 C 266.415 64.177,266.541 64.177,265.869 65.091 C 262.834 69.216,255.223 70.105,250.238 66.916 C 243.255 62.449,242.139 51.287,248.071 45.248 C 252.766 40.469,260.870 40.215,265.026 44.715 L 265.802 45.555 267.065 44.653 C 268.597 43.558,268.590 43.668,267.201 42.332 C 264.421 39.661,259.392 38.233,254.917 38.846 M347.123 39.042 C 347.213 39.156,347.403 39.587,347.546 40.000 C 347.689 40.412,348.591 42.775,349.549 45.250 C 350.508 47.725,352.617 53.200,354.236 57.417 C 357.770 66.619,357.785 66.656,357.900 66.333 C 358.112 65.741,363.187 46.507,363.435 45.355 C 363.586 44.656,363.756 42.921,363.813 41.500 L 363.917 38.917 366.042 38.870 C 367.210 38.844,368.167 38.864,368.167 38.913 C 368.167 38.963,367.721 39.869,367.175 40.927 C 365.692 43.806,365.336 44.864,363.324 52.364 C 362.308 56.151,361.215 60.225,360.893 61.417 C 360.572 62.608,360.013 64.708,359.651 66.083 C 359.289 67.458,358.924 68.808,358.839 69.083 C 358.755 69.358,358.603 69.902,358.503 70.292 L 358.320 71.000 357.345 71.000 C 356.570 71.000,356.345 70.940,356.254 70.708 C 356.191 70.548,353.854 64.417,351.060 57.083 C 348.265 49.750,345.924 43.693,345.856 43.624 C 345.788 43.555,345.367 44.868,344.922 46.541 C 344.476 48.214,343.832 50.633,343.491 51.917 C 343.150 53.200,342.555 55.413,342.169 56.833 C 340.107 64.422,339.667 66.699,339.667 69.768 L 339.667 71.000 337.583 71.000 C 336.438 71.000,335.500 70.938,335.500 70.862 C 335.500 70.786,335.907 69.942,336.404 68.987 C 338.059 65.805,338.327 64.973,341.335 53.667 C 343.915 43.969,344.000 43.557,344.000 40.682 C 344.000 39.788,344.050 39.006,344.111 38.944 C 344.319 38.736,346.950 38.821,347.123 39.042 M391.556 38.958 C 391.623 39.069,390.710 42.836,390.584 42.969 C 390.557 42.998,390.049 42.689,389.457 42.284 C 388.864 41.878,387.938 41.329,387.398 41.065 L 386.417 40.583 381.063 40.533 L 375.709 40.483 375.196 42.367 C 373.852 47.297,372.167 53.548,372.167 53.604 C 372.167 54.095,381.127 53.527,383.295 52.899 C 385.035 52.395,384.961 52.298,384.417 54.365 C 383.860 56.484,383.945 56.363,383.221 56.061 C 381.585 55.377,379.879 55.174,375.736 55.170 L 371.723 55.167 371.552 55.875 C 371.458 56.265,370.621 59.411,369.691 62.868 C 368.761 66.324,368.000 69.238,368.000 69.342 C 368.000 69.482,369.332 69.513,373.042 69.458 C 378.877 69.371,379.231 69.306,382.342 67.746 C 384.481 66.673,384.411 66.595,383.688 69.250 L 383.235 70.917 373.742 70.960 C 368.522 70.984,364.162 70.970,364.056 70.929 C 363.927 70.880,364.142 70.224,364.686 69.005 C 365.484 67.218,366.124 65.127,367.738 59.042 C 368.157 57.460,368.843 54.873,369.262 53.292 C 369.681 51.710,370.205 49.769,370.426 48.978 C 371.403 45.482,372.178 41.983,372.266 40.671 C 372.318 39.890,372.390 39.156,372.425 39.042 C 372.498 38.807,391.414 38.725,391.556 38.958 M81.000 55.162 L 81.000 70.833 82.582 70.833 L 84.165 70.833 84.207 57.247 L 84.250 43.661 88.987 55.039 C 91.593 61.297,94.141 67.410,94.651 68.625 L 95.576 70.833 96.433 70.833 L 97.290 70.833 100.259 63.708 C 103.984 54.772,105.960 50.021,107.431 46.461 C 108.065 44.927,108.640 43.670,108.708 43.669 C 108.777 43.668,108.833 49.779,108.833 57.250 L 108.833 70.833 110.417 70.833 L 112.000 70.833 112.000 55.167 L 112.000 39.500 109.518 39.500 C 107.686 39.500,107.014 39.555,106.955 39.708 C 106.874 39.916,105.303 43.798,101.913 52.167 C 100.929 54.596,99.452 58.233,98.632 60.250 C 97.811 62.267,97.027 64.235,96.888 64.625 C 96.749 65.015,96.585 65.333,96.523 65.333 C 96.462 65.333,94.036 59.540,91.132 52.458 L 85.853 39.583 83.427 39.537 L 81.000 39.491 81.000 55.162 M119.833 55.154 L 119.833 70.833 121.417 70.833 L 123.000 70.833 123.000 63.605 L 123.000 56.377 127.042 56.284 C 132.811 56.151,134.882 55.590,136.979 53.590 C 140.795 49.950,139.790 43.029,135.118 40.781 C 132.893 39.710,132.154 39.613,125.708 39.540 L 119.833 39.474 119.833 55.154 M145.167 55.167 L 145.167 70.833 154.083 70.833 L 163.000 70.833 163.000 69.417 L 163.000 68.000 155.667 68.000 L 148.333 68.000 148.333 53.750 L 148.333 39.500 146.750 39.500 L 145.167 39.500 145.167 55.167 M167.333 55.167 L 167.333 70.833 168.917 70.833 L 170.500 70.833 170.500 55.167 L 170.500 39.500 168.917 39.500 L 167.333 39.500 167.333 55.167 M187.925 40.375 C 187.339 41.690,186.519 43.573,185.002 47.083 C 184.250 48.825,183.050 51.600,182.335 53.250 C 181.621 54.900,180.436 57.637,179.703 59.333 C 178.969 61.029,177.622 64.142,176.708 66.250 C 175.794 68.358,174.993 70.252,174.928 70.458 C 174.812 70.831,174.823 70.833,176.536 70.833 L 178.260 70.833 178.462 70.292 C 178.573 69.994,179.321 68.157,180.124 66.211 L 181.583 62.672 189.750 62.671 L 197.917 62.670 199.583 66.688 C 200.500 68.898,201.330 70.738,201.429 70.776 C 201.527 70.815,202.326 70.824,203.205 70.798 L 204.802 70.750 203.669 68.083 C 203.045 66.617,200.305 60.242,197.580 53.917 C 194.855 47.592,192.354 41.761,192.021 40.959 L 191.417 39.501 189.866 39.501 L 188.315 39.500 187.925 40.375 M209.167 55.167 L 209.167 70.833 210.749 70.833 L 212.331 70.833 212.374 57.393 L 212.417 43.953 213.861 46.102 C 214.656 47.283,217.668 51.737,220.556 56.000 C 223.444 60.262,226.882 65.341,228.195 67.286 L 230.583 70.822 232.625 70.828 L 234.667 70.833 234.667 55.167 L 234.667 39.500 233.083 39.500 L 231.500 39.500 231.500 52.833 C 231.500 60.167,231.444 66.163,231.375 66.159 C 231.306 66.155,230.387 64.880,229.333 63.327 C 228.279 61.773,224.192 55.779,220.250 50.006 L 213.083 39.511 211.125 39.505 L 209.167 39.500 209.167 55.167 M274.111 39.611 C 274.050 39.672,274.000 46.722,274.000 55.278 L 274.000 70.833 284.000 70.833 L 294.000 70.833 294.000 69.417 L 294.000 68.000 285.667 68.000 L 277.333 68.000 277.333 62.000 L 277.333 56.000 284.917 56.000 L 292.500 56.000 292.500 54.583 L 292.500 53.167 284.917 53.167 L 277.333 53.167 277.333 47.750 L 277.333 42.333 285.417 42.333 L 293.500 42.333 293.500 40.917 L 293.500 39.500 283.861 39.500 C 278.560 39.500,274.172 39.550,274.111 39.611 M324.046 40.414 C 314.044 43.211,308.119 64.843,316.257 68.849 C 323.580 72.454,332.585 62.338,333.113 49.914 C 333.419 42.726,329.703 38.833,324.046 40.414 M61.122 41.763 C 73.490 44.318,75.101 63.148,63.359 67.919 C 57.047 70.484,49.714 67.754,46.841 61.769 C 41.707 51.073,49.993 39.464,61.122 41.763 M131.711 42.566 C 135.101 43.498,136.619 45.805,136.000 49.084 C 135.355 52.500,132.833 53.650,125.958 53.662 L 123.000 53.667 123.000 47.894 L 123.000 42.122 126.875 42.212 C 129.658 42.277,131.021 42.376,131.711 42.566 M191.136 46.333 C 191.792 47.938,193.298 51.575,194.483 54.417 L 196.636 59.583 193.246 59.628 C 191.381 59.653,188.282 59.653,186.359 59.628 L 182.863 59.583 184.077 56.667 C 186.683 50.403,189.378 43.898,189.525 43.515 C 189.739 42.956,189.793 43.050,191.136 46.333 M11.205 98.292 C 10.774 98.915,10.634 99.167,10.718 99.167 C 10.757 99.167,10.988 98.867,11.230 98.500 C 11.723 97.755,11.702 97.575,11.205 98.292 M32.922 97.971 C 32.985 98.093,33.096 98.393,33.170 98.638 C 33.278 98.995,33.308 99.016,33.319 98.740 C 33.327 98.551,33.215 98.251,33.071 98.074 C 32.927 97.896,32.860 97.850,32.922 97.971 M13.279 98.125 C 13.130 98.377,12.636 101.692,12.733 101.789 C 12.788 101.844,12.833 101.689,12.833 101.444 C 12.833 101.006,12.848 101.000,13.987 101.000 C 15.903 101.000,16.759 102.140,15.817 103.436 L 15.467 103.917 15.900 103.449 C 17.054 102.203,16.064 100.833,14.008 100.833 C 12.852 100.833,12.885 100.906,13.230 99.125 C 13.437 98.057,13.447 97.840,13.279 98.125 M18.331 99.178 C 18.222 99.825,18.169 100.391,18.213 100.435 C 18.257 100.479,18.345 100.156,18.409 99.716 C 18.647 98.061,18.493 98.185,20.392 98.124 L 22.083 98.070 20.307 98.035 L 18.530 98.000 18.331 99.178 M23.697 98.123 L 24.810 98.181 24.737 98.799 C 24.659 99.457,24.740 99.376,24.903 98.633 C 24.996 98.211,25.068 98.179,26.043 98.123 C 26.615 98.091,26.071 98.064,24.833 98.065 C 23.596 98.065,23.084 98.091,23.697 98.123 M27.601 101.023 C 26.531 102.685,25.683 104.072,25.716 104.105 C 25.748 104.137,26.182 103.528,26.679 102.751 C 27.176 101.974,28.041 100.625,28.599 99.754 C 29.158 98.883,29.664 98.220,29.724 98.280 C 29.784 98.340,29.833 98.301,29.833 98.194 C 29.833 97.678,29.395 98.233,27.601 101.023 M16.110 98.594 C 16.617 99.101,16.559 99.895,15.981 100.375 C 15.788 100.535,15.701 100.667,15.789 100.667 C 16.063 100.667,16.492 100.083,16.594 99.570 C 16.691 99.085,16.190 98.167,15.829 98.167 C 15.748 98.167,15.874 98.359,16.110 98.594 M33.311 100.667 C 33.193 102.441,32.783 103.721,31.969 104.857 C 31.621 105.343,31.567 105.478,31.808 105.266 C 32.766 104.418,33.554 101.985,33.467 100.142 C 33.420 99.150,33.410 99.183,33.311 100.667 M10.449 99.458 C 10.267 99.779,9.812 101.352,9.861 101.491 C 9.892 101.577,10.076 101.126,10.271 100.490 C 10.590 99.448,10.649 99.106,10.449 99.458 M18.019 101.167 C 18.032 101.439,18.065 101.484,18.114 101.298 C 18.177 101.057,18.444 101.004,19.803 100.963 L 21.417 100.915 19.708 100.833 L 17.999 100.750 18.019 101.167 M30.360 101.667 C 30.354 101.896,30.449 102.533,30.574 103.083 C 30.867 104.383,30.885 103.746,30.595 102.333 C 30.473 101.737,30.367 101.438,30.360 101.667 M9.721 102.917 C 9.722 103.558,9.752 103.800,9.788 103.455 C 9.824 103.109,9.824 102.584,9.787 102.288 C 9.750 101.992,9.721 102.275,9.721 102.917 M12.424 102.758 C 12.360 103.183,12.342 103.565,12.384 103.606 C 12.426 103.648,12.512 103.334,12.576 102.909 C 12.640 102.484,12.658 102.102,12.616 102.060 C 12.574 102.019,12.488 102.332,12.424 102.758 M17.519 103.792 C 17.500 104.161,17.526 104.166,19.375 104.131 L 21.250 104.096 19.469 104.042 C 17.955 103.997,17.678 103.946,17.614 103.703 C 17.559 103.494,17.533 103.518,17.519 103.792 M9.918 104.661 C 9.967 104.979,10.082 105.315,10.174 105.408 C 10.287 105.521,10.291 105.413,10.184 105.080 C 9.899 104.185,9.829 104.074,9.918 104.661 " stroke="none" fill="#fbfbfb" fill-rule="evenodd"></path><path id="path1" d="M0.000 55.917 L 0.000 111.833 151.667 111.833 L 303.333 111.833 303.333 55.917 L 303.333 0.000 151.667 0.000 L 0.000 0.000 0.000 55.917 M30.455 38.930 C 33.363 39.531,35.959 40.840,37.644 42.556 C 38.718 43.649,38.728 43.600,37.176 44.722 L 35.936 45.618 34.843 44.514 C 31.757 41.396,26.207 40.640,21.790 42.736 C 11.535 47.603,12.085 63.914,22.643 67.980 C 27.623 69.898,33.856 68.332,36.376 64.529 L 36.632 64.141 37.858 64.940 C 38.532 65.379,39.113 65.758,39.149 65.782 C 39.614 66.089,36.165 69.177,34.281 70.140 C 25.442 74.661,14.065 69.549,11.527 59.917 C 8.281 47.602,18.357 36.431,30.455 38.930 M62.917 39.228 C 79.363 43.901,78.478 67.930,61.731 71.417 C 49.345 73.997,39.027 62.590,42.585 50.250 C 45.049 41.706,54.191 36.750,62.917 39.228 M261.583 39.232 C 264.301 40.033,266.754 41.474,267.964 42.980 L 268.512 43.662 267.155 44.655 L 265.799 45.649 264.919 44.699 C 261.291 40.783,254.106 40.509,249.410 44.106 C 242.663 49.275,242.614 60.787,249.317 66.167 C 253.998 69.923,261.290 69.666,265.252 65.606 L 266.602 64.221 267.801 64.986 C 269.211 65.885,269.172 65.752,268.331 66.817 C 264.266 71.959,255.496 73.270,249.000 69.706 C 238.028 63.688,238.051 46.750,249.038 40.692 C 252.652 38.700,257.760 38.105,261.583 39.232 M344.059 40.417 C 344.059 41.242,344.087 41.600,344.122 41.213 C 344.157 40.827,344.157 40.152,344.123 39.713 C 344.088 39.275,344.060 39.592,344.059 40.417 M86.623 41.333 C 87.027 42.296,87.571 43.608,87.833 44.250 C 88.329 45.464,88.926 46.921,90.258 50.167 C 90.690 51.221,91.413 52.983,91.865 54.083 C 92.316 55.183,93.025 56.908,93.441 57.917 C 93.856 58.925,94.442 60.350,94.743 61.083 C 96.730 65.926,96.468 65.591,97.052 64.042 C 97.286 63.423,98.163 61.229,99.001 59.167 C 100.880 54.546,104.333 46.021,105.820 42.333 L 106.928 39.583 109.464 39.537 L 112.000 39.491 112.000 55.246 L 112.000 71.000 110.333 71.000 L 108.667 71.000 108.660 57.375 L 108.653 43.750 107.642 46.167 C 106.657 48.523,106.007 50.085,102.506 58.500 C 101.571 60.746,100.522 63.258,100.173 64.083 C 99.825 64.908,99.034 66.802,98.416 68.292 L 97.292 71.000 96.423 71.000 L 95.554 71.000 94.783 69.125 C 94.358 68.094,93.400 65.787,92.653 64.000 C 91.906 62.212,90.937 59.887,90.500 58.833 C 90.063 57.779,89.110 55.492,88.383 53.750 C 87.655 52.008,86.428 49.061,85.655 47.200 L 84.250 43.817 84.207 57.408 L 84.165 71.000 82.499 71.000 L 80.833 71.000 80.833 55.246 L 80.833 39.491 83.361 39.537 L 85.889 39.583 86.623 41.333 M132.422 39.815 C 137.680 40.900,140.265 44.923,139.072 50.167 C 138.092 54.475,134.384 56.333,126.767 56.333 L 123.170 56.333 123.127 63.625 L 123.083 70.917 121.458 70.964 L 119.833 71.012 119.833 55.256 L 119.833 39.500 125.375 39.502 C 130.127 39.504,131.131 39.549,132.422 39.815 M148.333 53.750 L 148.333 68.000 155.667 68.000 L 163.000 68.000 163.000 69.501 L 163.000 71.003 154.042 70.960 L 145.083 70.917 145.041 55.208 L 144.998 39.500 146.666 39.500 L 148.333 39.500 148.333 53.750 M170.626 55.208 L 170.583 70.917 168.958 70.964 L 167.333 71.012 167.333 55.256 L 167.333 39.500 169.001 39.500 L 170.668 39.500 170.626 55.208 M191.791 40.292 C 191.976 40.727,194.356 46.258,197.080 52.583 C 199.805 58.908,202.597 65.396,203.285 67.000 C 203.973 68.604,204.643 70.163,204.773 70.464 L 205.009 71.011 203.144 70.964 L 201.279 70.917 200.826 69.833 C 200.576 69.237,199.981 67.813,199.503 66.667 C 199.024 65.521,198.443 64.152,198.210 63.625 L 197.788 62.667 189.745 62.667 L 181.703 62.667 181.253 63.708 C 181.006 64.281,180.229 66.137,179.527 67.833 L 178.250 70.917 176.458 70.964 C 175.473 70.990,174.667 70.972,174.667 70.925 C 174.667 70.827,175.730 68.340,178.589 61.750 C 179.662 59.275,180.863 56.500,181.257 55.583 C 182.058 53.720,182.229 53.327,185.335 46.167 C 186.548 43.371,187.691 40.727,187.876 40.292 L 188.211 39.500 189.833 39.500 L 191.456 39.500 191.791 40.292 M216.613 44.591 C 218.522 47.391,220.688 50.560,221.427 51.633 C 222.167 52.706,224.000 55.383,225.502 57.583 C 227.878 61.063,229.783 63.839,230.989 65.581 L 231.333 66.079 231.333 52.789 L 231.333 39.500 233.000 39.500 L 234.667 39.500 234.667 55.250 L 234.667 71.000 232.679 71.000 C 230.776 71.000,230.678 70.983,230.387 70.600 C 230.220 70.380,228.583 67.977,226.750 65.259 C 224.917 62.541,222.514 58.990,221.412 57.367 C 220.309 55.744,217.834 52.095,215.912 49.257 L 212.417 44.098 212.374 57.549 L 212.331 71.000 210.666 71.000 L 209.000 71.000 209.000 55.250 L 209.000 39.500 211.072 39.500 L 213.143 39.500 216.613 44.591 M293.667 40.917 L 293.667 42.333 285.500 42.333 L 277.333 42.333 277.333 47.750 L 277.333 53.167 284.917 53.167 L 292.500 53.167 292.500 54.583 L 292.500 56.000 284.917 56.000 L 277.333 56.000 277.333 62.000 L 277.333 68.000 285.750 68.000 L 294.167 68.000 294.167 69.500 L 294.167 71.000 284.083 71.000 L 274.000 71.000 274.000 55.250 L 274.000 39.500 283.833 39.500 L 293.667 39.500 293.667 40.917 M325.375 40.115 C 325.535 40.157,325.798 40.157,325.958 40.115 C 326.119 40.073,325.987 40.039,325.667 40.039 C 325.346 40.039,325.215 40.073,325.375 40.115 M326.708 40.115 C 326.869 40.157,327.131 40.157,327.292 40.115 C 327.452 40.073,327.321 40.039,327.000 40.039 C 326.679 40.039,326.548 40.073,326.708 40.115 M56.398 41.664 C 42.357 43.650,41.556 65.569,55.417 68.511 C 62.048 69.919,68.397 66.367,70.480 60.083 C 73.855 49.909,66.463 40.241,56.398 41.664 M123.167 47.903 L 123.167 53.500 126.636 53.500 C 133.512 53.500,136.009 52.028,136.031 47.961 C 136.053 43.815,133.929 42.482,127.125 42.371 L 123.167 42.307 123.167 47.903 M189.171 44.605 C 188.872 45.326,188.342 46.592,187.994 47.417 C 186.628 50.647,183.205 58.951,183.094 59.299 L 182.978 59.667 189.750 59.667 C 196.471 59.667,196.522 59.664,196.416 59.330 C 196.357 59.144,195.818 57.813,195.219 56.371 C 194.090 53.656,191.766 48.049,190.668 45.394 C 189.702 43.058,189.792 43.106,189.171 44.605 M333.223 49.000 C 333.223 49.688,333.252 49.969,333.288 49.625 C 333.324 49.281,333.324 48.719,333.288 48.375 C 333.252 48.031,333.223 48.313,333.223 49.000 M336.227 49.833 C 336.227 50.704,336.255 51.060,336.289 50.625 C 336.324 50.190,336.324 49.477,336.289 49.042 C 336.255 48.606,336.227 48.962,336.227 49.833 M373.875 53.791 C 374.860 53.821,376.473 53.821,377.458 53.791 C 378.444 53.762,377.637 53.737,375.667 53.737 C 373.696 53.737,372.890 53.762,373.875 53.791 M329.406 66.375 L 328.917 66.917 329.458 66.427 C 329.963 65.971,330.077 65.833,329.948 65.833 C 329.919 65.833,329.675 66.077,329.406 66.375 M11.446 98.301 C 10.053 99.842,9.594 102.545,10.254 105.333 C 10.348 105.733,10.341 105.730,10.082 105.281 C 9.413 104.121,9.441 102.051,10.152 100.159 C 10.583 99.009,11.524 97.505,11.626 97.801 C 11.667 97.921,11.586 98.146,11.446 98.301 M33.426 98.985 C 33.873 100.730,33.389 103.108,32.240 104.806 C 31.500 105.899,31.261 105.820,31.967 104.715 C 32.740 103.504,33.188 102.209,33.281 100.917 C 33.356 99.867,33.293 99.377,32.905 98.000 C 32.821 97.702,32.840 97.631,32.970 97.751 C 33.071 97.844,33.276 98.399,33.426 98.985 M15.537 98.007 C 16.882 98.381,17.075 100.144,15.831 100.694 L 15.380 100.894 15.857 101.295 C 16.694 102.000,16.484 103.408,15.464 103.935 C 14.615 104.374,12.167 104.471,12.167 104.065 C 12.167 103.717,13.125 98.374,13.246 98.042 C 13.340 97.786,14.667 97.766,15.537 98.007 M22.000 98.000 C 22.000 98.100,21.343 98.167,20.362 98.167 L 18.724 98.167 18.529 99.228 C 18.213 100.940,18.126 100.833,19.833 100.833 C 20.722 100.833,21.333 100.901,21.333 101.000 C 21.333 101.099,20.699 101.167,19.765 101.167 L 18.197 101.167 18.004 102.375 C 17.898 103.040,17.781 103.677,17.744 103.792 C 17.693 103.949,18.101 104.000,19.422 104.000 C 20.474 104.000,21.167 104.066,21.167 104.167 C 21.167 104.339,17.634 104.412,17.465 104.243 C 17.415 104.193,17.469 103.649,17.584 103.035 C 17.699 102.420,17.962 100.998,18.170 99.875 L 18.546 97.833 20.273 97.833 C 21.313 97.833,22.000 97.900,22.000 98.000 M27.167 98.000 C 27.167 98.094,26.694 98.167,26.083 98.167 C 25.488 98.167,25.000 98.206,25.000 98.254 C 25.000 98.743,23.945 104.122,23.825 104.241 C 23.620 104.446,23.593 104.680,24.167 101.359 C 24.442 99.769,24.667 98.400,24.667 98.317 C 24.667 98.234,24.217 98.167,23.667 98.167 C 23.111 98.167,22.667 98.093,22.667 98.000 C 22.667 97.897,23.528 97.833,24.917 97.833 C 26.306 97.833,27.167 97.897,27.167 98.000 M30.347 100.511 C 30.592 101.926,30.849 103.375,30.919 103.732 C 31.005 104.171,30.990 104.347,30.872 104.274 C 30.776 104.215,30.646 103.791,30.583 103.333 L 30.469 102.500 28.658 102.500 L 26.847 102.500 26.416 103.236 C 26.017 103.918,25.358 104.648,25.515 104.235 C 25.741 103.638,29.594 97.837,29.733 97.883 C 29.826 97.914,30.102 99.097,30.347 100.511 M13.421 98.542 C 12.848 101.067,12.788 100.883,14.161 100.805 C 15.859 100.709,16.558 100.086,16.268 98.928 C 16.066 98.124,13.592 97.788,13.421 98.542 M28.372 100.209 L 27.187 102.083 28.698 102.132 C 29.529 102.158,30.241 102.148,30.281 102.108 C 30.350 102.039,29.708 98.485,29.607 98.385 C 29.580 98.358,29.024 99.178,28.372 100.209 M12.923 101.208 C 12.838 101.477,12.500 103.551,12.500 103.805 C 12.500 104.106,14.589 104.053,15.259 103.735 C 16.379 103.203,16.378 101.710,15.256 101.242 C 14.534 100.940,13.015 100.918,12.923 101.208 " stroke="none" fill="#54646c" fill-rule="evenodd"></path><path id="path2" d="M395.726 32.895 C 395.380 33.192,395.267 33.441,395.267 33.900 C 395.267 35.220,396.822 35.860,397.758 34.924 C 399.061 33.621,397.127 31.690,395.726 32.895 M397.515 32.979 C 398.372 33.673,397.802 35.167,396.680 35.167 C 395.574 35.167,395.069 33.697,395.939 33.012 C 396.484 32.584,397.013 32.572,397.515 32.979 M396.200 33.367 C 395.724 33.843,396.087 34.667,396.773 34.667 C 396.979 34.667,397.191 34.596,397.244 34.510 C 397.297 34.423,397.133 34.367,396.879 34.385 C 396.469 34.413,396.417 34.360,396.417 33.917 C 396.417 33.464,396.464 33.420,396.917 33.453 C 397.289 33.480,397.353 33.449,397.167 33.331 C 396.824 33.113,396.439 33.127,396.200 33.367 M325.032 38.679 C 316.543 39.781,309.572 49.328,309.587 59.833 C 309.610 76.340,329.198 74.277,334.984 57.159 C 337.443 49.886,336.147 42.860,331.835 40.074 C 329.792 38.755,327.721 38.330,325.032 38.679 M344.167 40.130 C 344.167 41.921,343.712 45.083,343.155 47.167 C 342.874 48.221,342.393 50.021,342.087 51.167 C 341.781 52.313,341.229 54.375,340.861 55.750 C 340.492 57.125,339.881 59.413,339.502 60.833 C 338.492 64.620,338.057 65.821,336.743 68.458 L 335.559 70.833 337.613 70.833 L 339.667 70.833 339.668 69.042 C 339.669 66.783,340.010 64.495,340.742 61.833 C 341.057 60.688,341.663 58.438,342.090 56.833 C 342.516 55.229,343.148 52.867,343.495 51.583 C 343.841 50.300,344.485 47.880,344.927 46.206 C 345.368 44.532,345.781 43.219,345.845 43.289 C 345.910 43.359,346.457 44.729,347.062 46.333 C 347.666 47.938,348.790 50.900,349.558 52.917 C 350.326 54.933,351.796 58.796,352.823 61.500 C 353.851 64.204,354.936 67.054,355.235 67.833 C 355.534 68.612,355.910 69.606,356.070 70.042 L 356.361 70.833 357.347 70.833 C 357.890 70.833,358.333 70.805,358.333 70.770 C 358.333 70.735,358.640 69.554,359.015 68.145 C 359.390 66.736,359.947 64.646,360.251 63.500 C 360.556 62.354,361.530 58.717,362.415 55.417 C 363.301 52.117,364.214 48.704,364.445 47.833 C 365.237 44.837,366.572 41.532,367.733 39.694 L 368.171 39.000 366.111 39.000 L 364.052 39.000 363.947 41.375 C 363.807 44.540,363.867 44.266,360.734 56.083 C 357.749 67.340,357.835 67.038,357.712 66.667 C 357.666 66.529,357.379 65.779,357.073 65.000 C 356.767 64.221,355.985 62.196,355.334 60.500 C 354.683 58.804,353.360 55.354,352.393 52.833 C 351.425 50.313,350.386 47.612,350.084 46.833 C 349.479 45.277,348.015 41.463,347.446 39.961 L 347.083 39.005 345.625 39.002 L 344.167 39.000 344.167 40.130 M372.435 39.708 C 372.053 42.886,371.915 43.726,371.554 45.062 C 370.658 48.378,369.772 51.683,369.249 53.667 C 368.601 56.125,367.434 60.514,366.590 63.667 C 365.906 66.220,365.175 68.310,364.477 69.704 C 364.215 70.228,364.000 70.697,364.000 70.745 C 364.000 70.794,368.310 70.833,373.577 70.833 L 383.154 70.833 383.334 70.125 C 383.433 69.735,383.666 68.902,383.851 68.274 C 384.273 66.840,384.366 66.870,382.439 67.822 C 379.202 69.421,379.312 69.402,373.194 69.465 C 368.054 69.518,367.808 69.507,367.892 69.219 C 367.940 69.053,368.215 68.017,368.503 66.917 C 368.791 65.817,369.166 64.429,369.337 63.833 C 369.603 62.909,370.898 58.035,371.502 55.692 L 371.688 54.968 376.052 55.040 C 380.511 55.113,381.309 55.224,383.525 56.083 C 383.817 56.196,384.046 55.651,384.559 53.625 C 384.826 52.569,384.809 52.551,383.832 52.837 C 381.325 53.573,380.229 53.710,376.208 53.790 C 371.469 53.885,371.897 54.210,372.732 51.153 C 373.043 50.015,373.797 47.208,374.409 44.917 C 375.021 42.625,375.553 40.652,375.592 40.533 C 375.649 40.359,376.686 40.326,380.790 40.370 C 386.679 40.433,386.779 40.452,389.073 41.945 C 389.811 42.425,390.468 42.765,390.531 42.701 C 390.644 42.587,391.500 39.447,391.500 39.148 C 391.500 39.063,387.448 39.000,382.010 39.000 L 372.520 39.000 372.435 39.708 M329.167 40.619 C 338.076 44.698,331.399 67.718,320.788 69.508 C 313.543 70.730,310.468 63.281,313.776 52.526 C 315.849 45.788,319.829 41.348,324.917 40.099 C 325.893 39.860,328.098 40.129,329.167 40.619 " stroke="none" fill="#040404" fill-rule="evenodd"></path><path id="path3" d="M145.080 55.167 C 145.080 63.829,145.100 67.373,145.125 63.042 C 145.150 58.710,145.150 51.623,145.125 47.292 C 145.100 42.960,145.080 46.504,145.080 55.167 M170.580 55.167 C 170.580 63.829,170.600 67.373,170.625 63.042 C 170.650 58.710,170.650 51.623,170.625 47.292 C 170.600 42.960,170.580 46.504,170.580 55.167 M293.559 40.917 C 293.559 41.742,293.587 42.100,293.622 41.713 C 293.657 41.327,293.657 40.652,293.623 40.213 C 293.588 39.775,293.560 40.092,293.559 40.917 M123.075 47.917 C 123.075 51.033,123.097 52.285,123.125 50.698 C 123.152 49.111,123.152 46.561,123.125 45.031 C 123.097 43.501,123.075 44.800,123.075 47.917 M245.406 43.375 L 244.917 43.917 245.458 43.427 C 245.963 42.971,246.077 42.833,245.948 42.833 C 245.919 42.833,245.675 43.077,245.406 43.375 M74.705 54.333 C 74.705 54.654,74.740 54.785,74.782 54.625 C 74.823 54.465,74.823 54.202,74.782 54.042 C 74.740 53.881,74.705 54.012,74.705 54.333 M41.887 55.167 C 41.887 55.762,41.917 56.006,41.954 55.708 C 41.991 55.410,41.991 54.923,41.954 54.625 C 41.917 54.327,41.887 54.571,41.887 55.167 M10.885 55.250 C 10.886 55.800,10.917 56.005,10.954 55.705 C 10.991 55.406,10.990 54.956,10.952 54.705 C 10.914 54.455,10.884 54.700,10.885 55.250 M373.542 55.124 C 374.527 55.154,376.140 55.154,377.125 55.124 C 378.110 55.095,377.304 55.071,375.333 55.071 C 373.363 55.071,372.556 55.095,373.542 55.124 M74.705 56.000 C 74.705 56.321,74.740 56.452,74.782 56.292 C 74.823 56.131,74.823 55.869,74.782 55.708 C 74.740 55.548,74.705 55.679,74.705 56.000 M123.077 63.583 C 123.077 67.617,123.098 69.243,123.125 67.197 C 123.151 65.151,123.151 61.851,123.125 59.864 C 123.098 57.876,123.077 59.550,123.077 63.583 M37.573 67.708 L 37.083 68.250 37.625 67.760 C 37.923 67.491,38.167 67.248,38.167 67.219 C 38.167 67.090,38.029 67.203,37.573 67.708 M13.795 97.954 C 14.094 97.991,14.544 97.990,14.795 97.952 C 15.045 97.914,14.800 97.884,14.250 97.885 C 13.700 97.886,13.495 97.917,13.795 97.954 M19.381 97.957 C 19.912 97.990,20.737 97.990,21.214 97.956 C 21.692 97.922,21.258 97.895,20.250 97.896 C 19.242 97.896,18.851 97.924,19.381 97.957 M23.701 97.957 C 24.316 97.989,25.366 97.989,26.034 97.957 C 26.703 97.926,26.200 97.899,24.917 97.899 C 23.633 97.899,23.086 97.925,23.701 97.957 M33.545 100.333 C 33.545 100.746,33.578 100.915,33.618 100.708 C 33.657 100.502,33.657 100.165,33.618 99.958 C 33.578 99.752,33.545 99.921,33.545 100.333 M18.964 101.123 C 19.448 101.157,20.198 101.156,20.631 101.122 C 21.063 101.088,20.667 101.060,19.750 101.061 C 18.833 101.061,18.480 101.089,18.964 101.123 M27.964 102.290 C 28.448 102.324,29.198 102.323,29.631 102.289 C 30.063 102.255,29.667 102.227,28.750 102.228 C 27.833 102.228,27.480 102.256,27.964 102.290 M17.480 104.214 C 17.553 104.286,18.430 104.323,19.431 104.297 L 21.250 104.248 19.299 104.166 C 18.226 104.120,17.408 104.142,17.480 104.214 M12.621 104.287 C 12.917 104.324,13.442 104.324,13.788 104.288 C 14.134 104.252,13.892 104.222,13.250 104.221 C 12.608 104.221,12.325 104.250,12.621 104.287 " stroke="none" fill="#9da0a4" fill-rule="evenodd"></path><path id="path4" d="M344.880 38.956 C 345.318 38.990,345.993 38.990,346.380 38.955 C 346.767 38.920,346.408 38.892,345.583 38.892 C 344.758 38.893,344.442 38.922,344.880 38.956 M365.049 38.957 C 365.671 38.989,366.646 38.989,367.215 38.957 C 367.784 38.924,367.275 38.898,366.083 38.898 C 364.892 38.898,364.426 38.925,365.049 38.957 M372.442 38.958 C 372.372 39.072,379.349 39.070,388.167 38.954 C 390.046 38.930,387.294 38.892,382.052 38.871 C 376.809 38.850,372.485 38.890,372.442 38.958 M80.915 55.167 L 80.917 70.917 82.542 70.926 L 84.167 70.936 82.585 70.879 L 81.002 70.821 80.958 55.119 L 80.914 39.417 80.915 55.167 M209.082 55.167 L 209.083 70.917 210.625 70.927 L 212.168 70.937 210.668 70.879 L 209.168 70.821 209.125 55.119 L 209.081 39.417 209.082 55.167 M231.294 52.833 C 231.270 60.167,231.306 66.167,231.375 66.167 C 231.444 66.167,231.500 60.167,231.500 52.833 C 231.500 45.500,231.463 39.500,231.419 39.500 C 231.374 39.500,231.318 45.500,231.294 52.833 M363.887 40.667 C 363.887 41.262,363.917 41.506,363.954 41.208 C 363.991 40.910,363.991 40.423,363.954 40.125 C 363.917 39.827,363.887 40.071,363.887 40.667 M377.958 40.458 C 379.265 40.486,381.402 40.486,382.708 40.458 C 384.015 40.430,382.946 40.407,380.333 40.407 C 377.721 40.407,376.652 40.430,377.958 40.458 M124.542 42.291 C 125.435 42.321,126.898 42.321,127.792 42.291 C 128.685 42.261,127.954 42.236,126.167 42.236 C 124.379 42.236,123.648 42.261,124.542 42.291 M46.575 43.375 L 45.917 44.083 46.625 43.425 C 47.284 42.812,47.410 42.667,47.284 42.667 C 47.257 42.667,46.938 42.985,46.575 43.375 M69.917 43.333 C 70.275 43.700,70.605 44.000,70.651 44.000 C 70.697 44.000,70.441 43.700,70.083 43.333 C 69.725 42.967,69.395 42.667,69.349 42.667 C 69.303 42.667,69.559 42.967,69.917 43.333 M108.667 57.292 L 108.750 70.917 110.250 70.926 L 111.750 70.935 110.292 70.878 L 108.833 70.821 108.833 57.244 C 108.833 49.776,108.777 43.667,108.708 43.667 C 108.640 43.667,108.621 49.798,108.667 57.292 M124.542 53.624 C 125.435 53.654,126.898 53.654,127.792 53.624 C 128.685 53.594,127.954 53.570,126.167 53.570 C 124.379 53.570,123.648 53.594,124.542 53.624 M244.223 55.167 C 244.223 55.854,244.252 56.135,244.288 55.792 C 244.324 55.448,244.324 54.885,244.288 54.542 C 244.252 54.198,244.223 54.479,244.223 55.167 M309.389 59.833 C 309.389 60.521,309.419 60.802,309.455 60.458 C 309.491 60.115,309.491 59.552,309.455 59.208 C 309.419 58.865,309.389 59.146,309.389 59.833 M265.075 65.875 L 264.417 66.583 265.125 65.925 C 265.515 65.562,265.833 65.243,265.833 65.216 C 265.833 65.090,265.688 65.216,265.075 65.875 M267.324 67.792 L 266.750 68.417 267.375 67.842 C 267.719 67.526,268.000 67.245,268.000 67.217 C 268.000 67.090,267.859 67.210,267.324 67.792 M294.034 69.374 L 294.000 70.831 284.042 70.875 L 274.083 70.919 284.047 70.960 C 292.243 70.993,294.026 70.960,294.096 70.777 C 294.143 70.654,294.156 69.960,294.124 69.235 L 294.067 67.917 294.034 69.374 M174.814 70.881 C 174.887 70.954,175.689 70.991,176.598 70.964 L 178.250 70.915 176.466 70.832 C 175.485 70.787,174.741 70.809,174.814 70.881 M363.942 70.875 C 363.985 70.944,368.323 71.000,373.583 71.000 C 378.843 71.000,383.182 70.944,383.224 70.875 C 383.267 70.806,378.928 70.750,373.583 70.750 C 368.238 70.750,363.900 70.806,363.942 70.875 M96.044 70.953 C 96.297 70.991,96.672 70.990,96.877 70.951 C 97.082 70.911,96.875 70.880,96.417 70.881 C 95.958 70.882,95.791 70.915,96.044 70.953 M120.631 70.956 C 121.115 70.990,121.865 70.990,122.297 70.956 C 122.730 70.921,122.333 70.894,121.417 70.894 C 120.500 70.895,120.146 70.923,120.631 70.956 M149.530 70.958 C 151.976 70.984,156.026 70.984,158.530 70.958 C 161.034 70.932,159.033 70.911,154.083 70.911 C 149.133 70.911,147.084 70.932,149.530 70.958 M168.131 70.956 C 168.615 70.990,169.365 70.990,169.797 70.956 C 170.230 70.921,169.833 70.894,168.917 70.894 C 168.000 70.895,167.646 70.923,168.131 70.956 M202.214 70.957 C 202.745 70.990,203.570 70.990,204.048 70.956 C 204.526 70.922,204.092 70.895,203.083 70.896 C 202.075 70.896,201.684 70.924,202.214 70.957 M231.625 70.957 C 232.198 70.989,233.135 70.989,233.708 70.957 C 234.281 70.924,233.813 70.898,232.667 70.898 C 231.521 70.898,231.052 70.924,231.625 70.957 M336.549 70.957 C 337.171 70.989,338.146 70.989,338.715 70.957 C 339.284 70.924,338.775 70.898,337.583 70.898 C 336.392 70.898,335.926 70.925,336.549 70.957 M356.792 70.954 C 357.090 70.991,357.577 70.991,357.875 70.954 C 358.173 70.917,357.929 70.887,357.333 70.887 C 356.738 70.887,356.494 70.917,356.792 70.954 M13.877 98.120 C 14.131 98.158,14.506 98.157,14.711 98.117 C 14.916 98.078,14.708 98.046,14.250 98.048 C 13.792 98.049,13.624 98.081,13.877 98.120 M26.931 102.226 C 27.020 102.460,27.298 102.495,28.809 102.465 L 30.583 102.430 28.926 102.375 C 28.014 102.345,27.169 102.238,27.047 102.137 C 26.875 101.994,26.849 102.013,26.931 102.226 M12.273 103.917 C 12.346 104.106,12.616 104.159,13.393 104.135 L 14.417 104.104 13.458 104.044 C 12.931 104.010,12.500 103.912,12.500 103.825 C 12.500 103.738,12.427 103.667,12.339 103.667 C 12.250 103.667,12.220 103.779,12.273 103.917 " stroke="none" fill="#a4acac" fill-rule="evenodd"></path></g></svg>